<svg width="40" height="40" viewBox="0 0 40 40" fill="none" xmlns="http://www.w3.org/2000/svg">
<path fill-rule="evenodd" clip-rule="evenodd" d="M12.5 1.25C9.51631 1.25 6.65483 2.43526 4.54505 4.54505C2.43526 6.65483 1.25 9.51631 1.25 12.5V27.5C1.25 30.4837 2.43526 33.3452 4.54505 35.4549C6.65483 37.5647 9.51631 38.75 12.5 38.75H27.5C30.4837 38.75 33.3452 37.5647 35.4549 35.4549C37.5647 33.3452 38.75 30.4837 38.75 27.5V12.5C38.75 9.51631 37.5647 6.65483 35.4549 4.54505C33.3452 2.43526 30.4837 1.25 27.5 1.25H12.5ZM3.75 12.5C3.75 7.66667 7.66667 3.75 12.5 3.75H27.5C32.3333 3.75 36.25 7.66667 36.25 12.5V27.5C36.25 32.3333 32.3333 36.25 27.5 36.25H12.5C10.1794 36.25 7.95376 35.3281 6.31282 33.6872C4.67187 32.0462 3.75 29.8206 3.75 27.5V12.5ZM32.5 10.4167C32.5 10.9692 32.2805 11.4991 31.8898 11.8898C31.4991 12.2805 30.9692 12.5 30.4167 12.5C29.8641 12.5 29.3342 12.2805 28.9435 11.8898C28.5528 11.4991 28.3333 10.9692 28.3333 10.4167C28.3333 9.86413 28.5528 9.33423 28.9435 8.94353C29.3342 8.55283 29.8641 8.33333 30.4167 8.33333C30.9692 8.33333 31.4991 8.55283 31.8898 8.94353C32.2805 9.33423 32.5 9.86413 32.5 10.4167ZM20 12.9167C19.0698 12.9167 18.1487 13.0999 17.2893 13.4559C16.4299 13.8118 15.6491 14.3336 14.9913 14.9913C14.3336 15.6491 13.8118 16.4299 13.4559 17.2893C13.0999 18.1487 12.9167 19.0698 12.9167 20C12.9167 20.9302 13.0999 21.8513 13.4559 22.7107C13.8118 23.5701 14.3336 24.3509 14.9913 25.0087C15.6491 25.6664 16.4299 26.1882 17.2893 26.5441C18.1487 26.9001 19.0698 27.0833 20 27.0833C21.8786 27.0833 23.6803 26.3371 25.0087 25.0087C26.3371 23.6803 27.0833 21.8786 27.0833 20C27.0833 18.1214 26.3371 16.3197 25.0087 14.9913C23.6803 13.6629 21.8786 12.9167 20 12.9167ZM10.4167 20C10.4167 17.4583 11.4263 15.0208 13.2236 13.2236C15.0208 11.4263 17.4583 10.4167 20 10.4167C22.5417 10.4167 24.9792 11.4263 26.7764 13.2236C28.5737 15.0208 29.5833 17.4583 29.5833 20C29.5833 22.5417 28.5737 24.9792 26.7764 26.7764C24.9792 28.5737 22.5417 29.5833 20 29.5833C17.4583 29.5833 15.0208 28.5737 13.2236 26.7764C11.4263 24.9792 10.4167 22.5417 10.4167 20Z" fill="#FF9000"/>
</svg>
