<svg width="28" height="28" viewBox="0 0 28 28" fill="none" xmlns="http://www.w3.org/2000/svg">
<path fill-rule="evenodd" clip-rule="evenodd" d="M13.4166 2.49984C16.3561 2.49984 19.1752 3.66754 21.2537 5.74607C23.3322 7.8246 24.4999 10.6437 24.4999 13.5832H26.8333C26.8333 6.17367 20.8273 0.166504 13.4166 0.166504V2.49984ZM13.4166 7.1665C15.1184 7.1665 16.7505 7.84254 17.9539 9.0459C19.1572 10.2493 19.8333 11.8814 19.8333 13.5832H22.1666C22.1666 11.2625 21.2447 9.03693 19.6038 7.39599C17.9628 5.75504 15.7373 4.83317 13.4166 4.83317V7.1665ZM11.1358 20.2775L13.0176 17.1252L20.6103 19.2952L19.8006 26.0548L18.7086 25.9942C15.8382 25.8369 13.043 25.0175 10.5419 23.6002C9.0794 22.7696 7.73571 21.7453 6.54727 20.5552C5.35718 19.3671 4.33293 18.0238 3.50227 16.5617C2.08496 14.0606 1.26559 11.2655 1.10827 8.395L1.04761 7.30184L7.80844 6.49217L9.97844 14.0848L6.75961 16.0052C7.93793 17.6903 9.42193 19.1395 11.1346 20.2775H11.1358Z" fill="#553000"/>
</svg>
