<svg width="305" height="67" viewBox="0 0 305 67" fill="none" xmlns="http://www.w3.org/2000/svg">
<g clip-path="url(#clip0_1217_184)">
<path d="M94.8674 28.6612C95.7205 28.4063 96.6161 28.231 97.5545 28.1247C98.4928 28.0185 99.6177 27.9707 100.935 27.9707C103.824 27.9707 105.903 28.64 107.172 29.9732C108.441 31.3064 109.081 33.516 109.081 36.602C109.081 39.688 108.495 42.0994 107.332 43.4911C106.165 44.8827 104.379 45.5785 101.98 45.5785C101.702 45.5785 101.244 45.5413 100.609 45.4723C99.9749 45.4032 99.4471 45.3236 99.0313 45.228V52.4782H94.8728V28.6559L94.8674 28.6612ZM100.929 42.8165C102.294 42.8165 103.296 42.365 103.947 41.4514C104.592 40.5432 104.917 38.9284 104.917 36.602C104.917 34.2755 104.592 32.8042 103.947 31.9066C103.302 31.0089 102.294 30.5574 100.929 30.5574H99.0259V42.8165H100.929Z" fill="#553000"/>
<path d="M112.552 52.4835V28.3159H116.71V52.4835H112.552Z" fill="#553000"/>
<path d="M121.423 28.6612C122.276 28.4063 123.172 28.231 124.11 28.1247C125.048 28.0185 126.173 27.9707 127.49 27.9707C130.353 27.9707 132.427 28.624 133.712 29.92C134.992 31.2214 135.637 33.3301 135.637 36.2567C135.637 38.4451 135.306 40.1129 134.65 41.2602C133.989 42.4128 133.051 43.2733 131.825 43.8523L136.506 52.4835H131.825L127.842 44.718H125.587V52.4835H121.428V28.6612H121.423ZM127.485 41.956C128.85 41.956 129.852 41.5311 130.503 40.676C131.148 39.8261 131.473 38.3495 131.473 36.2567C131.473 34.164 131.148 32.6874 130.503 31.8375C129.857 30.9877 128.85 30.5574 127.485 30.5574H125.582V41.9507H127.485V41.956Z" fill="#553000"/>
<path d="M143.437 52.4835V31.0779H138.068V28.3159H152.969V31.0779H147.6V52.4835H143.442H143.437Z" fill="#553000"/>
<path d="M157.741 52.6216C156.749 52.4835 155.96 52.3241 155.384 52.1382V50.242H160.236C161.921 50.242 163.152 49.9127 163.925 49.2594C164.698 48.6007 165.087 47.6075 165.087 46.2743C165.087 45.4669 164.906 44.803 164.549 44.2718C164.192 43.7407 163.744 43.3104 163.216 42.9758C162.683 42.6412 161.931 42.2428 160.966 41.786C159.74 41.2124 158.748 40.66 157.986 40.1288C157.224 39.5976 156.568 38.8593 156.029 37.9033C155.486 36.9472 155.214 35.7096 155.214 34.1905C155.214 32.2571 155.821 30.738 157.032 29.6332C158.247 28.5284 160.007 27.976 162.315 27.976C163.445 27.976 164.512 28.045 165.503 28.1831C166.495 28.3212 167.284 28.4806 167.86 28.6665V30.5627H163.008C161.878 30.5627 160.988 30.8867 160.342 31.5294C159.697 32.1721 159.372 33.0591 159.372 34.1852C159.372 35.035 159.564 35.7574 159.943 36.3417C160.321 36.9312 160.796 37.404 161.366 37.7758C161.931 38.1423 162.71 38.5566 163.707 39.0187C164.906 39.5923 165.871 40.1341 166.602 40.6387C167.332 41.1433 167.956 41.8551 168.473 42.7633C168.99 43.6716 169.251 44.8402 169.251 46.269C169.251 48.4095 168.579 50.0402 167.241 51.1556C165.903 52.271 163.797 52.8287 160.934 52.8287C159.804 52.8287 158.738 52.7597 157.746 52.6216H157.741Z" fill="#553000"/>
<path d="M175.329 52.6748C174.391 52.5685 173.495 52.3932 172.642 52.1383V28.6612C173.495 28.4063 174.391 28.231 175.329 28.1247C176.262 28.0185 177.392 27.9707 178.709 27.9707C181.252 27.9707 183.156 28.5284 184.43 29.6438C185.699 30.7593 186.333 32.3315 186.333 34.3552C186.333 35.4122 186.04 36.4108 185.448 37.3403C184.862 38.2751 184.057 38.9816 183.038 39.4649V39.603C184.425 40.0864 185.491 40.8725 186.243 41.9667C186.994 43.0608 187.367 44.3781 187.367 45.9185C187.367 48.2184 186.685 49.9446 185.326 51.0972C183.961 52.2498 181.753 52.8235 178.704 52.8235C177.387 52.8235 176.262 52.7704 175.324 52.6695L175.329 52.6748ZM178.363 38.5035C179.493 38.5035 180.383 38.1636 181.028 37.4837C181.674 36.8038 181.999 35.8212 181.999 34.5305C181.999 33.2398 181.674 32.2571 181.028 31.5773C180.383 30.8974 179.493 30.5574 178.363 30.5574H176.801V38.4982H178.363V38.5035ZM178.709 50.2421C180.186 50.2421 181.279 49.8809 181.983 49.1532C182.686 48.4255 183.038 47.2942 183.038 45.7538C183.038 44.1178 182.686 42.9334 181.983 42.1951C181.279 41.4568 180.186 41.0903 178.709 41.0903H176.801V50.2421H178.709Z" fill="#553000"/>
<path d="M192.475 50.8104C191.276 49.4612 190.673 47.2622 190.673 44.1975V28.3159H194.832V44.1975C194.832 46.4761 195.119 48.0802 195.695 49.015C196.271 49.9446 197.081 50.412 198.121 50.412C199.161 50.412 199.971 49.9446 200.547 49.015C201.123 48.0855 201.411 46.4761 201.411 44.1975V28.3159H205.569V44.1975C205.569 47.2569 204.967 49.4612 203.767 50.8104C202.567 52.1595 200.68 52.8287 198.121 52.8287C195.562 52.8287 193.675 52.1542 192.475 50.8104ZM193.968 26.2444V23.8276H202.285V26.2444H193.968Z" fill="#553000"/>
<path d="M214.456 52.4835L208.565 28.3159H212.894L216.983 47.1295H217.122L221.211 28.3159H225.54L219.649 52.4835H214.451H214.456Z" fill="#553000"/>
<path d="M228.686 52.4835V28.3159H232.845L239.429 44.1975H239.605V28.3159H243.587V52.4835H239.429L232.845 36.6019H232.674V52.4835H228.686Z" fill="#553000"/>
<path d="M248.279 52.4835V28.3159H252.438V52.4835H248.279Z" fill="#553000"/>
<path d="M257.145 52.4835V28.3159H269.796V31.0779H261.304V38.4982H268.757V41.2602H261.304V49.7162H269.796V52.4782H257.145V52.4835Z" fill="#553000"/>
<path d="M273.353 52.4835V28.3159H277.511V39.364L283.232 28.3159H287.907L281.499 40.2244L288.606 52.4835H283.925L277.511 41.0902V52.4835H273.353Z" fill="#553000"/>
<path d="M293.495 52.6216C292.503 52.4835 291.714 52.3241 291.138 52.1382V50.242H295.99C297.675 50.242 298.906 49.9127 299.679 49.2594C300.452 48.6007 300.842 47.6075 300.842 46.2743C300.842 45.4669 300.66 44.803 300.303 44.2718C299.946 43.7407 299.498 43.3104 298.97 42.9758C298.437 42.6412 297.685 42.2428 296.72 41.786C295.494 41.2124 294.503 40.66 293.74 40.1288C292.978 39.5976 292.322 38.8593 291.783 37.9033C291.24 36.9472 290.968 35.7096 290.968 34.1905C290.968 32.2571 291.576 30.738 292.786 29.6332C294.001 28.5284 295.761 27.976 298.069 27.976C299.199 27.976 300.266 28.045 301.257 28.1831C302.249 28.3212 303.038 28.4806 303.614 28.6665V30.5627H298.762C297.632 30.5627 296.742 30.8867 296.097 31.5294C295.451 32.1721 295.126 33.0591 295.126 34.1852C295.126 35.035 295.318 35.7574 295.697 36.3417C296.075 36.9312 296.55 37.404 297.12 37.7758C297.685 38.1423 298.464 38.5566 299.461 39.0187C300.66 39.5923 301.625 40.1341 302.356 40.6387C303.086 41.1433 303.71 41.8551 304.227 42.7633C304.744 43.6716 305.005 44.8402 305.005 46.269C305.005 48.4095 304.334 50.0402 302.995 51.1556C301.657 52.271 299.551 52.8287 296.688 52.8287C295.558 52.8287 294.492 52.7597 293.5 52.6216H293.495Z" fill="#553000"/>
<path d="M61.9243 24.2686H52.4131V33.755L61.9243 43.2361V24.2686Z" fill="#331D00"/>
<path d="M43.8776 55.1553H31.9939V66.9947H43.8776V55.1553Z" fill="#553000"/>
<path d="M75.7383 56.7008L38.9515 20.0511C38.7009 19.8015 38.3703 19.6899 38.0451 19.7005C37.7199 19.6846 37.3894 19.8015 37.1388 20.0511L0.351966 56.7008C-0.12253 57.1736 -0.12253 57.9331 0.351966 58.4059L7.1442 65.1728C7.61869 65.6455 8.38109 65.6455 8.85558 65.1728L38.0398 36.0973L67.224 65.1728C67.6985 65.6455 68.4609 65.6455 68.9354 65.1728L75.7276 58.4059C76.2021 57.9331 76.2021 57.1736 75.7276 56.7008H75.7383Z" fill="#553000"/>
<path fill-rule="evenodd" clip-rule="evenodd" d="M60.8688 0C60.9755 0 61.0554 0.00531156 61.0981 0.0743618C61.1567 0.175281 61.0928 0.254955 61.0235 0.313382C60.6289 0.626764 60.3144 1.00388 60.0585 1.43412C59.3867 2.56017 59.3601 3.76058 59.6426 4.99287C59.8346 5.83209 60.1118 6.65007 60.3624 7.47336C60.7409 8.7322 61.1248 9.99635 61.2634 11.3189C61.4233 12.854 61.1674 14.3093 60.549 15.7116C60.2237 16.4499 59.8079 17.1351 59.2907 17.7672C58.9069 18.2346 58.5923 18.7498 58.1445 19.1694C56.833 20.4017 55.3028 21.2356 53.5595 21.6818C53.3942 21.7243 53.1649 21.8624 53.0583 21.6712C52.9517 21.4799 53.1863 21.3578 53.3089 21.2356C54.8283 19.7218 55.3135 17.8787 55.0629 15.7966C54.8657 14.1712 54.4285 12.6043 54.0233 11.0268C53.6234 9.47051 53.4795 7.87704 53.9273 6.30482C54.2952 5.00349 55.0256 3.87744 55.884 2.83106C57.1209 1.32258 58.7363 0.446171 60.6343 0.0531156C60.7249 0.0318694 60.8155 0.0212462 60.8742 0.0106231L60.8688 0Z" fill="#FF9000"/>
</g>
<defs>
<clipPath id="clip0_1217_184">
<rect width="305" height="67" fill="white"/>
</clipPath>
</defs>
</svg>
