<svg width="40" height="40" viewBox="0 0 40 40" fill="none" xmlns="http://www.w3.org/2000/svg">
<path fill-rule="evenodd" clip-rule="evenodd" d="M1.66675 28.3334V6.66675H31.6667V28.3334H1.66675ZM20.8334 17.5001C20.8334 18.6052 20.3944 19.665 19.613 20.4464C18.8316 21.2278 17.7718 21.6667 16.6667 21.6667C15.5617 21.6667 14.5019 21.2278 13.7205 20.4464C12.9391 19.665 12.5001 18.6052 12.5001 17.5001C12.5001 16.395 12.9391 15.3352 13.7205 14.5538C14.5019 13.7724 15.5617 13.3334 16.6667 13.3334C17.7718 13.3334 18.8316 13.7724 19.613 14.5538C20.3944 15.3352 20.8334 16.395 20.8334 17.5001ZM38.3334 33.3334V13.3334H35.0001V31.6667H8.33342V35.0001H38.3334V33.3334Z" fill="#FFEDD6"/>
</svg>
