<svg width="40" height="40" viewBox="0 0 40 40" fill="none" xmlns="http://www.w3.org/2000/svg">
<path fill-rule="evenodd" clip-rule="evenodd" d="M10.0001 10.4167C10.0001 8.31704 10.8342 6.3034 12.3188 4.81874C13.8035 3.33407 15.8171 2.5 17.9167 2.5C20.0164 2.5 22.03 3.33407 23.5147 4.81874C24.9993 6.3034 25.8334 8.31704 25.8334 10.4167C25.8334 12.5163 24.9993 14.5299 23.5147 16.0146C22.03 17.4993 20.0164 18.3333 17.9167 18.3333C15.8171 18.3333 13.8035 17.4993 12.3188 16.0146C10.8342 14.5299 10.0001 12.5163 10.0001 10.4167ZM2.52341 24.71C7.34955 22.0222 12.8115 20.6863 18.3334 20.8433V32.5H1.66675V25.185L2.52341 24.71ZM20.8334 33.3333V20.8333H38.3334V33.3333L29.5834 38.3333L20.8334 33.3333Z" fill="#553000"/>
</svg>
