<svg width="40" height="40" viewBox="0 0 40 40" fill="none" xmlns="http://www.w3.org/2000/svg">
<path fill-rule="evenodd" clip-rule="evenodd" d="M19.9999 3.33325C17.6259 3.33361 15.3294 4.17826 13.521 5.71621C11.7125 7.25415 10.5099 9.38515 10.1282 11.7283C8.50807 11.518 6.86356 11.8426 5.44473 12.6525C4.02591 13.4625 2.91037 14.7136 2.26771 16.2157C1.62506 17.7177 1.49044 19.3885 1.88432 20.9741C2.27821 22.5596 3.17906 23.9732 4.4499 24.9999H18.3332V38.3333H21.6666V24.9999H35.5482C36.8189 23.9733 37.7196 22.5599 38.1134 20.9745C38.5073 19.3892 38.3728 17.7186 37.7304 16.2167C37.088 14.7147 35.9728 13.4636 34.5543 12.6535C33.1358 11.8433 31.4916 11.5185 29.8716 11.7283C29.4899 9.38515 28.2873 7.25415 26.4788 5.71621C24.6704 4.17826 22.3739 3.33361 19.9999 3.33325Z" fill="#FFEDD6"/>
</svg>
